<?xml version="1.0" encoding="UTF-8"?>
<svg id="Layer_1" data-name="Layer 1" xmlns="http://www.w3.org/2000/svg" viewBox="0 0 520.52 140.41">
  <defs>
    <style>
      .cls-1 {
        fill: #231f20;
      }

      .cls-2 {
        fill: #0c0c0c;
        fill-rule: evenodd;
      }
    </style>
  </defs>
  <path class="cls-1" d="M112.23,56.05c4.41,3.27,9.44,5.04,17.12,6.42,4.03-1.89,5.92-3.78,7.81-5.67l1.51,1.01c-3.02,3.78-6.67,8.56-6.67,15.74v26.69c0,6.29,1.51,8.81,3.9,9.95l4.28-2.9,1.01,1.89-12.72,9.82c-3.78-1.51-8.56-7.18-8.56-11.58l-12.34,11.58c-5.79-2.27-12.09-6.55-12.09-16.62s6.67-15.23,12.97-19.39c-5.16-5.54-8.18-12.09-9.82-19.77,7.55-1.64,11.08-4.28,13.6-7.18ZM119.91,86.52v-14.6c-6.67-1.89-13.47-3.9-18.63-6.8,2.39,10.7,8.94,19.26,18.63,21.4ZM119.91,88.91c-4.66-.76-6.67-2.14-10.07-4.66-1.64,3.53-2.27,7.3-2.27,10.95,0,8.81,2.27,13.09,6.04,15.36l6.3-5.92v-15.74Z"/>
  <path class="cls-1" d="M150,66.13h-7.05v-2.01c5.16-2.01,13.22-9.57,18.13-17.5l3.27-5.29,1.64,1.01-.88,1.64c-2.39,4.53-3.27,7.81-3.27,13.22v1.38h11.46l-2.64,7.55h-8.56v40.29c2.77,1.38,4.53,2.14,6.67,3.78l2.9-2.01,1.01,1.89-11.46,8.94c-6.55-3.9-11.46-6.04-15.36-6.92v-2.14c2.9-.88,4.15-4.78,4.15-7.43v-36.38Z"/>
  <path class="cls-1" d="M183.11,66.13h-7.05v-2.01c5.16-2.01,13.22-9.57,18.13-17.5l3.27-5.29,1.64,1.01-.88,1.64c-2.39,4.53-3.27,7.81-3.27,13.22v1.38h11.46l-2.64,7.55h-8.56v40.29c2.77,1.38,4.53,2.14,6.67,3.78l2.9-2.01,1.01,1.89-11.46,8.94c-6.55-3.9-11.46-6.04-15.36-6.92v-2.14c2.9-.88,4.15-4.78,4.15-7.43v-36.38Z"/>
  <path class="cls-1" d="M248.2,75.19l-22.16,18.51v11.58c2.64,1.13,6.8,2.64,10.2,5.41l7.93-5.04,1.39,1.64-16.24,11.71c-5.79-3.4-13.35-6.29-19.89-8.44v-1.76c3.27-1.26,4.53-5.29,4.53-8.06v-23.92c0-3.4-2.27-5.41-4.91-5.79v-2.27c9.57-3.65,16.74-8.06,23.67-12.72l15.49,19.14ZM226.04,91.18l11.33-9.69-12.46-17-1.76.88c1.76,3.27,2.9,6.8,2.9,10.83v14.98Z"/>
  <path class="cls-1" d="M257.64,105.28v-32.48c0-3.9-2.27-7.68-6.29-5.79l-.75-1.64,9.57-9.44c6.8,1.76,9.57,8.81,9.57,15.36l15.11-15.23c3.9,4.78,7.93,7.68,11.83,6.8l.63,1.64c-1.89.76-3.78,3.15-3.78,5.79v38.27c-7.05,2.52-11.71,6.92-16.12,11.08-2.39-2.52-5.04-4.66-7.68-6.42v10.2c0,5.41,1.89,9.82,5.41,11.33l-1.76,1.64c-3.65-1.26-6.29-3.15-8.69-6.67-1.76,4.66-6.42,9.44-10.45,10.7l-.88-1.26c3.15-3.9,4.28-8.06,4.28-15.74v-13.85c-3.27.25-6.29,1.64-8.69,4.41l-.88-1.01c1.76-3.4,5.29-6.17,9.57-7.68ZM281.44,70.53l-4.28-3.4-7.43,7.3v29.84c4.03.63,8.06,2.39,11.71,5.41v-39.16Z"/>
  <path class="cls-1" d="M322.98,55.42c6.67,3.78,13.98,7.81,22.66,9.19v1.89c-2.14,1.01-3.15,2.64-3.15,7.93v35.63l-18.38,9.57c-5.92-4.53-14.86-7.93-21.91-9.06v-1.89c2.39-1.01,3.02-2.64,3.02-7.3v-35.38l17.75-10.58ZM317.32,105.03c5.16,1.64,9.19,3.78,13.09,7.05v-42.05c-4.78-.88-9.07-2.9-13.09-6.42v41.42Z"/>
  <path class="cls-1" d="M355.22,65.25c7.93-2.14,14.98-5.29,20.52-9.44,2.01,1.76,6.92,5.67,11.33,5.67,3.65,0,5.16-4.03,5.04-7.3l1.76.25c0,4.53-2.01,7.55-5.04,11.21l-10.95,13.6c4.15,3.02,9.57,5.29,15.11,5.29l.25,1.76c-2.64,2.27-3.27,3.15-3.27,4.41v18c-6.67,1.89-13.72,5.54-20.4,11.46-2.39-3.15-9.07-8.06-14.35-8.06s-7.93,4.15-6.04,7.93l-1.76.88c-3.15-6.3,3.9-10.58,7.43-15.36l8.31-11.08c-3.65-1.76-7.55-4.03-11.71-5.16v-1.76c1.26-.38,3.78-1.26,3.78-3.15v-19.14ZM377.88,91.31c-2.77-.63-5.16-1.89-7.3-3.4l-13.6,18.26c7.18-2.14,15.99-.88,20.9,4.91v-19.77ZM382.41,70.41c-6.92.25-11.46-1.76-15.11-7.18v21.53l2.27,1.38,12.84-15.74Z"/>
  <path class="cls-1" d="M404.32,66.13h-7.05v-2.01c5.16-2.01,13.22-9.57,18.13-17.5l3.27-5.29,1.64,1.01-.88,1.64c-2.39,4.53-3.27,7.81-3.27,13.22v1.38h11.46l-2.64,7.55h-8.56v40.29c2.77,1.38,4.53,2.14,6.67,3.78l2.9-2.01,1.01,1.89-11.46,8.94c-6.55-3.9-11.46-6.04-15.36-6.92v-2.14c2.9-.88,4.16-4.78,4.16-7.43v-36.38Z"/>
  <path class="cls-1" d="M469.41,75.19l-22.16,18.51v11.58c2.64,1.13,6.8,2.64,10.2,5.41l7.93-5.04,1.38,1.64-16.24,11.71c-5.79-3.4-13.34-6.29-19.89-8.44v-1.76c3.27-1.26,4.53-5.29,4.53-8.06v-23.92c0-3.4-2.27-5.41-4.91-5.79v-2.27c9.57-3.65,16.75-8.06,23.67-12.72l15.49,19.14ZM447.25,91.18l11.33-9.69-12.46-17-1.76.88c1.76,3.27,2.9,6.8,2.9,10.83v14.98Z"/>
  <path class="cls-1" d="M514.1,100.88c0,6.8,1.38,9.82,6.04,8.18l.38,1.89-12.59,8.18c-5.67-4.66-5.92-10.7-5.92-17.5v-31.1l-4.28-3.27-7.43,7.18v32.61l4.41,3.78-9.57,8.81-10.83-8.31,3.9-4.15v-34.37c0-3.9-2.27-7.68-6.29-5.79l-.76-1.64,9.57-9.44c6.8,1.76,9.57,8.81,9.57,15.36l15.11-15.23c3.9,4.78,7.93,7.68,11.83,6.8l.63,1.64c-1.89.76-3.78,3.15-3.78,5.79v30.59Z"/>
  <path class="cls-1" d="M88.03,122.68c0,2.05-.88,3.39-2.65,4-1.43.48-5.2.72-11.3.72s-10.15-.24-12.87-.72c-1.29-.24-2.13-.49-2.54-.75-.41-.26-.92-.94-1.54-2.04-3.48-6.39-6.94-12.78-10.37-19.17-5.67-10.3-9.06-15.97-10.15-17.02-5.15,1.86-7.72,3.19-7.72,4,0,3.58.14,8.97.43,16.2s.43,12.65.43,16.27c0,1.48-.64,2.31-1.93,2.5-2.48.38-6.96.57-13.44.57s-10.3-.19-12.3-.57c-1.38-.29-2.07-1.02-2.07-2.22,0-5.15.25-12.92.75-23.31.5-10.39.75-18.19.75-23.38,0-5.53-.24-13.84-.71-24.92C.31,41.77.07,33.46.07,27.93c0-1.05.5-1.57,1.5-1.57,1.48,0,3.71.07,6.69.21,2.98.14,5.21.21,6.69.21s3.79-.07,6.79-.21,5.24-.21,6.72-.21c.81,0,1.22.43,1.22,1.29,0,3.53-.18,8.86-.54,15.98-.36,7.13-.54,12.46-.54,15.98,0,4.1,1.12,6.15,3.36,6.15,5.67,0,10.08-1.55,13.23-4.65,2.34-2.29,4.7-6.46,7.08-12.51,1.53-4.62,4.03-11.44,7.51-20.45.52-1.19,1.6-1.79,3.22-1.79,1.24,0,3.11.07,5.61.21s4.37.21,5.61.21,3.21-.05,5.76-.14c2.55-.09,4.44-.14,5.69-.14,1.14,0,1.72.55,1.72,1.65,0,1.57-1,5.41-3,11.51-5.91,18.02-12.71,29.27-20.38,33.75-1.57.91-2.36,1.65-2.36,2.22,0-.05,4.4,7.1,13.19,21.45,8.8,14.35,13.19,22.88,13.19,25.6Z"/>
  <path id="path0" class="cls-2" d="M71.67,1.7c-2.99,1.75-7.12,9-9.79,17.17-.53,1.64-1.49,5.51-1.42,5.73,0,.02-.04.36-.1.75-.17,1.08-2.67,7.42-1.91,7.3.62-.1,3.74-6.19,3.92-7.47.85-6.02,5.25-16.26,8.63-20.1,2.18-2.47,3.62-2.43,6.07.18,3.59,3.81,7.76,13.64,8.69,20.49.41,3-.87,7.9-.41,8.2.84.57,2.68-5.1,2.48-7.27-.25-2.77-.81-5.11-2.14-9.03-1.17-3.45-1.79-4.91-3.35-7.95-3.55-6.91-7.5-9.88-10.68-8.02M15.37.05c-2.7-.4-5.64,1.84-8.93,6.81-1.84,2.78-4.82,9.57-5.65,12.9-1.23,4.88-.71,13.82.27,14.19.69.26.47-6.82.77-8.65.55-3.42.54-3.35,1.07-5.27C5.45,10.89,11.03,2.41,14.67,2.16c3.55-.24,10.36,12.06,12.38,22.35.34,1.76.39,1.85.9,2.04.86.33,1.94,2.84,1.77,1.51-.91-6.91-6.58-21.56-10.7-25.82C17.84,1.03,16.49.21,15.37.05M72.57,8.86c-2.76,2.04-4.78,5.89-6.08,11.61-.47,2.06-.45,2.34.16,2.69.35.2.41.2.98.06.57-.14,2.08-.26,2.43-.19.21.04,1.01.04,1.15-.01.12-.04.28-.03,2.67.18.94.08,1.93.21,2.2.28.27.07.67.15.89.17.59.06,1.2.18,2.27.45,2.66.66,3.13.22,2.64-2.47-.8-4.5-2.67-9.13-4.82-11.97-1.36-1.8-2.79-2.05-4.5-.79M14.49,8.3c-1.47-.02-2.71,1.09-4.5,4.04-.96,1.58-2.62,5.68-3.03,7.46-.94,4.12-.75,4.58,1.74,4.26.49-.06,1.6-.2,2.46-.31.87-.11,1.69-.22,1.83-.25.14-.03.51-.06.81-.05.86.03,1.23.02,1.38-.03.08-.02.38-.05.66-.05.28,0,.8,0,1.15,0,.35,0,.69.01.75.04.16.06,1.24.11,1.39.06.06-.02.32,0,.56.03.24.03.81.11,1.25.17.44.06.94.16,1.11.23,1.66.63,1.71-1.06.17-5.85-1.66-5.19-5.25-9.7-7.74-9.74"/>
</svg>